<svg xmlns="http://www.w3.org/2000/svg" viewBox="0 0 200 220" role="img" aria-label="Gimme seal">
  <ellipse cx="100" cy="108" rx="88" ry="98" fill="none" stroke="#F2ECDD" stroke-width="6.5"/>
  <ellipse cx="100" cy="108" rx="76.5" ry="86" fill="none" stroke="#C2A24C" stroke-width="3.2"/>
  <g transform="translate(42.53,161.1) scale(0.15,-0.15)"><path d="M414.3994140625 722Q483.39935302734375 722 527.3992919921875 702.8999938964844Q571.3992309570312 683.7999877929688 605.5992431640625 657Q616.999267578125 647.7999877929688 625.5992431640625 647.7999877929688Q644.5992431640625 647.7999877929688 650.5992431640625 708H673.5992431640625Q671.5992431640625 668.6000366210938 670.5992431640625 612.0000915527344Q669.5992431640625 555.400146484375 669.5992431640625 462.000244140625H646.5992431640625Q639.5992431640625 527.9998779296875 623.5993347167969 574.5997619628906Q607.5994262695312 621.1996459960938 562.999755859375 653.9995727539062Q540.399658203125 672.599853515625 508.59942626953125 683.1000061035156Q476.7991943359375 693.6001586914062 445.9989013671875 693.6001586914062Q389.5989990234375 693.6001586914062 351.0989685058594 663.500244140625Q312.59893798828125 633.4003295898438 288.7988586425781 583.8003845214844Q264.998779296875 534.200439453125 254.2987060546875 473.70037841796875Q243.5986328125 413.2003173828125 243.5986328125 352.20001220703125Q243.5986328125 172.20001220703125 290.3988037109375 89.10000610351562Q337.198974609375 6 419.99957275390625 6Q439.99981689453125 6 454.8999938964844 10.500091552734375Q469.8001708984375 15.00018310546875 480.000244140625 21.80023193359375Q492.600341796875 30.80029296875 497.600341796875 42.700286865234375Q502.600341796875 54.60028076171875 502.600341796875 72.80029296875V172.000244140625Q502.600341796875 219.400146484375 495.0003356933594 242.60009765625Q487.40032958984375 265.800048828125 465.5003356933594 274.4000244140625Q443.600341796875 283 401.600341796875 284V304Q423.60028076171875 303 454.8001708984375 302.5Q486.00006103515625 302 520.0999450683594 301.5Q554.1998291015625 301 582.5997314453125 301Q627.5995483398438 301 665.2993774414062 302.0Q702.9992065429688 303 726.59912109375 304V284Q708.5990600585938 283 699.1990356445312 277.0Q689.7990112304688 271 686.6990051269531 253.0Q683.5989990234375 235 683.5989990234375 198V0H663.5989990234375Q662.5989990234375 17 655.6990051269531 37.0Q648.7990112304688 57 633.3990478515625 57Q625.799072265625 57 612.9991760253906 53.20001220703125Q600.1992797851562 49.4000244140625 572.3994750976562 35.2000732421875Q534.5995483398438 15 492.3996276855469 0.5Q450.19970703125 -14 405.9996337890625 -14Q285.39990234375 -14 203.50003051757812 28.899993896484375Q121.60015869140625 71.79998779296875 80.60018920898438 152.5999755859375Q39.6002197265625 233.39996337890625 39.6002197265625 346.7999267578125Q39.6002197265625 459.79998779296875 87.60012817382812 544.0Q135.60003662109375 628.2000122070312 220.099853515625 675.1000061035156Q304.59967041015625 722 414.3994140625 722Z" fill="#F2ECDD"/></g>
</svg>